<mxfile host="Electron" modified="2023-09-07T17:42:22.834Z" agent="Mozilla/5.0 (Windows NT 10.0; Win64; x64) AppleWebKit/537.36 (KHTML, like Gecko) draw.io/21.6.8 Chrome/114.0.5735.289 Electron/25.5.0 Safari/537.36" etag="BdWZU5c_xN981dHBU1eZ" version="21.6.8" type="device">
  <diagram name="Page-1" id="CTSBTtlPjF7ZJka6tU7G">
    <mxGraphModel dx="1001" dy="566" grid="1" gridSize="10" guides="1" tooltips="1" connect="1" arrows="1" fold="1" page="1" pageScale="1" pageWidth="850" pageHeight="1100" math="0" shadow="0">
      <root>
        <mxCell id="0" />
        <mxCell id="1" parent="0" />
        <mxCell id="4ODZif7YlOPQW65o_ZpC-4" value="" style="edgeStyle=orthogonalEdgeStyle;rounded=0;orthogonalLoop=1;jettySize=auto;html=1;" parent="1" source="4ODZif7YlOPQW65o_ZpC-1" target="4ODZif7YlOPQW65o_ZpC-3" edge="1">
          <mxGeometry relative="1" as="geometry" />
        </mxCell>
        <mxCell id="4ODZif7YlOPQW65o_ZpC-1" value="" style="ellipse;whiteSpace=wrap;html=1;aspect=fixed;" parent="1" vertex="1">
          <mxGeometry x="190" y="130" width="20" height="20" as="geometry" />
        </mxCell>
        <mxCell id="4ODZif7YlOPQW65o_ZpC-6" value="" style="edgeStyle=orthogonalEdgeStyle;rounded=0;orthogonalLoop=1;jettySize=auto;html=1;" parent="1" source="4ODZif7YlOPQW65o_ZpC-3" target="4ODZif7YlOPQW65o_ZpC-5" edge="1">
          <mxGeometry relative="1" as="geometry" />
        </mxCell>
        <mxCell id="4ODZif7YlOPQW65o_ZpC-15" value="No" style="edgeLabel;html=1;align=center;verticalAlign=middle;resizable=0;points=[];" parent="4ODZif7YlOPQW65o_ZpC-6" vertex="1" connectable="0">
          <mxGeometry x="-0.6211" y="-4" relative="1" as="geometry">
            <mxPoint as="offset" />
          </mxGeometry>
        </mxCell>
        <mxCell id="4ODZif7YlOPQW65o_ZpC-8" value="" style="edgeStyle=orthogonalEdgeStyle;rounded=0;orthogonalLoop=1;jettySize=auto;html=1;entryX=0.5;entryY=0;entryDx=0;entryDy=0;" parent="1" source="4ODZif7YlOPQW65o_ZpC-3" target="4ODZif7YlOPQW65o_ZpC-7" edge="1">
          <mxGeometry relative="1" as="geometry" />
        </mxCell>
        <mxCell id="4ODZif7YlOPQW65o_ZpC-16" value="Yes" style="edgeLabel;html=1;align=center;verticalAlign=middle;resizable=0;points=[];" parent="4ODZif7YlOPQW65o_ZpC-8" vertex="1" connectable="0">
          <mxGeometry x="-0.3091" y="3" relative="1" as="geometry">
            <mxPoint as="offset" />
          </mxGeometry>
        </mxCell>
        <mxCell id="4ODZif7YlOPQW65o_ZpC-3" value="Is NAT problematic for your application?" style="whiteSpace=wrap;html=1;" parent="1" vertex="1">
          <mxGeometry x="140" y="180" width="120" height="60" as="geometry" />
        </mxCell>
        <mxCell id="4ODZif7YlOPQW65o_ZpC-5" value="NAT" style="whiteSpace=wrap;html=1;" parent="1" vertex="1">
          <mxGeometry x="10" y="490" width="120" height="60" as="geometry" />
        </mxCell>
        <mxCell id="4ODZif7YlOPQW65o_ZpC-12" value="" style="edgeStyle=orthogonalEdgeStyle;rounded=0;orthogonalLoop=1;jettySize=auto;html=1;" parent="1" source="4ODZif7YlOPQW65o_ZpC-7" target="4ODZif7YlOPQW65o_ZpC-11" edge="1">
          <mxGeometry relative="1" as="geometry" />
        </mxCell>
        <mxCell id="4ODZif7YlOPQW65o_ZpC-17" value="No" style="edgeLabel;html=1;align=center;verticalAlign=middle;resizable=0;points=[];" parent="4ODZif7YlOPQW65o_ZpC-12" vertex="1" connectable="0">
          <mxGeometry x="-0.4625" y="-2" relative="1" as="geometry">
            <mxPoint as="offset" />
          </mxGeometry>
        </mxCell>
        <mxCell id="4ODZif7YlOPQW65o_ZpC-14" value="" style="edgeStyle=orthogonalEdgeStyle;rounded=0;orthogonalLoop=1;jettySize=auto;html=1;entryX=0.5;entryY=0;entryDx=0;entryDy=0;" parent="1" source="4ODZif7YlOPQW65o_ZpC-7" target="4ODZif7YlOPQW65o_ZpC-13" edge="1">
          <mxGeometry relative="1" as="geometry" />
        </mxCell>
        <mxCell id="4ODZif7YlOPQW65o_ZpC-18" value="Yes" style="edgeLabel;html=1;align=center;verticalAlign=middle;resizable=0;points=[];" parent="4ODZif7YlOPQW65o_ZpC-14" vertex="1" connectable="0">
          <mxGeometry x="-0.3375" y="-2" relative="1" as="geometry">
            <mxPoint as="offset" />
          </mxGeometry>
        </mxCell>
        <mxCell id="4ODZif7YlOPQW65o_ZpC-7" value="Is 10.0.0.0/8 used on-premises?" style="whiteSpace=wrap;html=1;" parent="1" vertex="1">
          <mxGeometry x="300" y="260" width="120" height="60" as="geometry" />
        </mxCell>
        <mxCell id="4ODZif7YlOPQW65o_ZpC-11" value="GRE Tunneling &lt;br&gt;(No address overlapping)" style="whiteSpace=wrap;html=1;" parent="1" vertex="1">
          <mxGeometry x="160" y="490" width="120" height="60" as="geometry" />
        </mxCell>
        <mxCell id="4ODZif7YlOPQW65o_ZpC-20" value="" style="edgeStyle=orthogonalEdgeStyle;rounded=0;orthogonalLoop=1;jettySize=auto;html=1;" parent="1" source="4ODZif7YlOPQW65o_ZpC-13" target="4ODZif7YlOPQW65o_ZpC-19" edge="1">
          <mxGeometry relative="1" as="geometry" />
        </mxCell>
        <mxCell id="4ODZif7YlOPQW65o_ZpC-29" value="Yes" style="edgeLabel;html=1;align=center;verticalAlign=middle;resizable=0;points=[];" parent="4ODZif7YlOPQW65o_ZpC-20" vertex="1" connectable="0">
          <mxGeometry x="-0.6316" y="-2" relative="1" as="geometry">
            <mxPoint as="offset" />
          </mxGeometry>
        </mxCell>
        <mxCell id="4ODZif7YlOPQW65o_ZpC-22" value="" style="edgeStyle=orthogonalEdgeStyle;rounded=0;orthogonalLoop=1;jettySize=auto;html=1;" parent="1" source="4ODZif7YlOPQW65o_ZpC-13" target="4ODZif7YlOPQW65o_ZpC-21" edge="1">
          <mxGeometry relative="1" as="geometry" />
        </mxCell>
        <mxCell id="4ODZif7YlOPQW65o_ZpC-30" value="No" style="edgeLabel;html=1;align=center;verticalAlign=middle;resizable=0;points=[];" parent="4ODZif7YlOPQW65o_ZpC-22" vertex="1" connectable="0">
          <mxGeometry x="-0.2" relative="1" as="geometry">
            <mxPoint as="offset" />
          </mxGeometry>
        </mxCell>
        <mxCell id="4ODZif7YlOPQW65o_ZpC-13" value="Are there overlapping-safe subnets in the IBM Cloud network available?" style="whiteSpace=wrap;html=1;" parent="1" vertex="1">
          <mxGeometry x="570" y="340" width="170" height="60" as="geometry" />
        </mxCell>
        <mxCell id="4ODZif7YlOPQW65o_ZpC-19" value="GRE Tunneling&lt;br style=&quot;border-color: var(--border-color);&quot;&gt;(Partial address overlapping)" style="whiteSpace=wrap;html=1;" parent="1" vertex="1">
          <mxGeometry x="760" y="490" width="120" height="60" as="geometry" />
        </mxCell>
        <mxCell id="4ODZif7YlOPQW65o_ZpC-24" value="" style="edgeStyle=orthogonalEdgeStyle;rounded=0;orthogonalLoop=1;jettySize=auto;html=1;" parent="1" source="4ODZif7YlOPQW65o_ZpC-21" target="4ODZif7YlOPQW65o_ZpC-23" edge="1">
          <mxGeometry relative="1" as="geometry" />
        </mxCell>
        <mxCell id="4ODZif7YlOPQW65o_ZpC-27" value="No" style="edgeLabel;html=1;align=center;verticalAlign=middle;resizable=0;points=[];" parent="4ODZif7YlOPQW65o_ZpC-24" vertex="1" connectable="0">
          <mxGeometry x="-0.6727" y="1" relative="1" as="geometry">
            <mxPoint as="offset" />
          </mxGeometry>
        </mxCell>
        <mxCell id="4ODZif7YlOPQW65o_ZpC-26" value="" style="edgeStyle=orthogonalEdgeStyle;rounded=0;orthogonalLoop=1;jettySize=auto;html=1;" parent="1" source="4ODZif7YlOPQW65o_ZpC-21" target="4ODZif7YlOPQW65o_ZpC-25" edge="1">
          <mxGeometry relative="1" as="geometry" />
        </mxCell>
        <mxCell id="4ODZif7YlOPQW65o_ZpC-28" value="Yes" style="edgeLabel;html=1;align=center;verticalAlign=middle;resizable=0;points=[];" parent="4ODZif7YlOPQW65o_ZpC-26" vertex="1" connectable="0">
          <mxGeometry x="-0.0615" y="-1" relative="1" as="geometry">
            <mxPoint as="offset" />
          </mxGeometry>
        </mxCell>
        <mxCell id="4ODZif7YlOPQW65o_ZpC-21" value="Is IP alias problematic?" style="whiteSpace=wrap;html=1;" parent="1" vertex="1">
          <mxGeometry x="440" y="420" width="120" height="60" as="geometry" />
        </mxCell>
        <mxCell id="4ODZif7YlOPQW65o_ZpC-23" value="GRE Tunneling&amp;nbsp;&lt;br&gt;+ IP Alias" style="whiteSpace=wrap;html=1;" parent="1" vertex="1">
          <mxGeometry x="300" y="490" width="120" height="60" as="geometry" />
        </mxCell>
        <mxCell id="4ODZif7YlOPQW65o_ZpC-25" value="Virtual Overlay Network" style="whiteSpace=wrap;html=1;" parent="1" vertex="1">
          <mxGeometry x="580" y="490" width="120" height="60" as="geometry" />
        </mxCell>
      </root>
    </mxGraphModel>
  </diagram>
</mxfile>
